<svg width="412" height="600" viewBox="0 0 412 600" fill="none" xmlns="http://www.w3.org/2000/svg">
<path d="M347.603 56.3371C218.45 -65.8905 2.16482 23.3001 0.0122645 203.553C-0.302143 232.405 5.43169 261.002 16.8443 287.503C28.2568 314.003 45.0949 337.818 66.2735 357.414C77.7412 367.926 86.9179 380.691 93.2302 394.91C99.5426 409.129 102.855 424.497 102.96 440.053V458.771C100.478 458.771 98.0978 459.757 96.3427 461.512C94.5876 463.267 93.6015 465.648 93.6015 468.13C93.6015 470.612 94.5876 472.993 96.3427 474.748C98.0978 476.503 100.478 477.489 102.96 477.489V496.207C100.478 496.207 98.0978 497.193 96.3427 498.948C94.5876 500.703 93.6015 503.084 93.6015 505.566C93.6015 508.048 94.5876 510.428 96.3427 512.183C98.0978 513.939 100.478 514.925 102.96 514.925C102.96 527.335 107.891 539.238 116.666 548.013C125.442 556.789 137.344 561.719 149.755 561.719H168.473C168.473 571.648 172.417 581.17 179.438 588.19C186.458 595.211 195.98 599.155 205.909 599.155C215.837 599.155 225.359 595.211 232.38 588.19C239.4 581.17 243.344 571.648 243.344 561.719H262.062C271.179 561.733 280.102 559.083 287.733 554.095C295.365 549.107 301.373 541.998 305.02 533.643H308.857C310.086 533.698 311.314 533.51 312.47 533.091C313.627 532.672 314.69 532.029 315.598 531.199C316.506 530.369 317.242 529.369 317.763 528.254C318.285 527.14 318.582 525.934 318.637 524.705C318.692 523.476 318.505 522.248 318.086 521.091C317.667 519.935 317.024 518.872 316.194 517.964C315.364 517.055 314.363 516.32 313.249 515.798C312.134 515.277 310.928 514.98 309.699 514.925C308.483 514.925 308.857 517.639 308.857 496.207C311.339 496.207 313.72 495.221 315.475 493.466C317.23 491.711 318.216 489.33 318.216 486.848C318.216 484.366 317.23 481.985 315.475 480.23C313.72 478.475 311.339 477.489 308.857 477.489C308.857 437.526 303.522 396.347 345.731 357.227C366.467 338.093 383.05 314.901 394.449 289.091C405.848 263.281 411.821 235.403 411.996 207.188C412.172 178.974 406.546 151.024 395.469 125.074C384.392 99.124 368.099 75.7277 347.603 56.3371ZM205.909 580.437C200.944 580.437 196.183 578.465 192.673 574.955C189.163 571.445 187.191 566.684 187.191 561.719H224.627C224.627 566.684 222.655 571.445 219.144 574.955C215.634 578.465 210.873 580.437 205.909 580.437ZM262.062 543.001H149.755C142.607 543.016 135.722 540.303 130.505 535.416C125.288 530.53 122.131 523.837 121.678 516.703L284.43 531.49C281.854 535.016 278.491 537.893 274.608 539.891C270.725 541.889 266.429 542.954 262.062 543.001ZM121.678 497.891V479.174L290.139 494.429V513.146L121.678 497.891ZM121.678 460.456V449.412H290.139V475.711L121.678 460.456ZM274.603 236.497L216.016 287.69C218.928 265.127 229.959 244.397 247.046 229.377C264.134 214.357 286.107 206.075 308.857 206.08H327.575C327.575 230.901 317.715 254.706 300.163 272.258C282.612 289.809 258.807 299.669 233.985 299.669C228.838 299.669 221.819 307.156 286.489 250.535C287.864 248.841 288.605 246.721 288.582 244.539C288.56 242.358 287.776 240.253 286.366 238.588C284.957 236.923 283.01 235.803 280.862 235.421C278.714 235.039 276.5 235.419 274.603 236.497ZM124.86 222.458C189.531 278.986 182.418 271.592 177.832 271.592C153.01 271.592 129.206 261.732 111.654 244.181C94.1029 226.629 84.2426 202.825 84.2426 178.003H103.428C126.098 178.111 147.958 186.444 164.947 201.454C181.936 216.464 192.9 237.13 195.801 259.613L137.214 208.42C135.336 206.907 132.947 206.178 130.544 206.384C128.141 206.59 125.911 207.715 124.318 209.526C122.725 211.336 121.892 213.691 121.993 216.101C122.094 218.51 123.121 220.788 124.86 222.458ZM333.003 343.469C308.2 366.078 292.884 397.245 290.139 430.694H224.627C222.144 430.694 219.764 429.708 218.009 427.953C216.254 426.198 215.268 423.818 215.268 421.335V318.387H233.985C263.69 318.387 292.185 306.619 313.234 285.659C334.282 264.698 346.169 236.252 346.293 206.548V196.721C346.293 194.239 345.307 191.858 343.551 190.103C341.796 188.348 339.416 187.362 336.934 187.362H308.857C289.215 187.391 269.927 192.597 252.937 202.456C235.948 212.314 221.857 226.476 212.086 243.516C205.885 219.5 191.908 198.212 172.337 182.974C152.765 167.737 128.7 159.407 103.896 159.285H74.8837C72.4016 159.285 70.0211 160.271 68.2659 162.027C66.5108 163.782 65.5248 166.162 65.5248 168.644V178.471C65.6485 208.176 77.5355 236.621 98.5837 257.582C119.632 278.543 148.127 290.311 177.832 290.31H196.55V421.335C196.55 423.818 195.564 426.198 193.809 427.953C192.053 429.708 189.673 430.694 187.191 430.694H121.678C119.099 397.374 103.982 366.271 79.376 343.656C-43.6004 230.507 34.4531 27.6052 195.801 18.9014C372.123 9.54249 460.004 225.921 333.003 343.469Z" fill="black" fill-opacity="0.3"/>
</svg>
